<svg xmlns="http://www.w3.org/2000/svg" viewBox="0 0 500 500" fill="none">
  <!-- Triskel pour le background répété -->
  <g transform="translate(250,250)" opacity="0.5">
    <g transform="rotate(0)">
      <path d="M0,-120 C0,-120 80,-120 80,-60 C80,0 40,20 0,20 C-40,20 -80,0 -80,-60 C-80,-120 0,-120 0,-120 Z" 
            stroke="#0E676D" stroke-width="2" fill="none"/>
      <path d="M0,-60 C0,-60 40,-60 40,-30 C40,0 20,10 0,10" 
            stroke="#0E676D" stroke-width="1.5" fill="none"/>
    </g>
    <g transform="rotate(120)">
      <path d="M0,-120 C0,-120 80,-120 80,-60 C80,0 40,20 0,20 C-40,20 -80,0 -80,-60 C-80,-120 0,-120 0,-120 Z" 
            stroke="#0E676D" stroke-width="2" fill="none"/>
      <path d="M0,-60 C0,-60 40,-60 40,-30 C40,0 20,10 0,10" 
            stroke="#0E676D" stroke-width="1.5" fill="none"/>
    </g>
    <g transform="rotate(240)">
      <path d="M0,-120 C0,-120 80,-120 80,-60 C80,0 40,20 0,20 C-40,20 -80,0 -80,-60 C-80,-120 0,-120 0,-120 Z" 
            stroke="#0E676D" stroke-width="2" fill="none"/>
      <path d="M0,-60 C0,-60 40,-60 40,-30 C40,0 20,10 0,10" 
            stroke="#0E676D" stroke-width="1.5" fill="none"/>
    </g>
    <circle cx="0" cy="0" r="10" stroke="#0E676D" stroke-width="2" fill="none"/>
  </g>
</svg>
